<svg width="103" height="102" viewBox="0 0 103 102" fill="none" xmlns="http://www.w3.org/2000/svg">
<g clip-path="url(#clip0_48_8)">
<path d="M82.9626 0.99707H20.3828C9.52452 0.99707 0.722168 9.79942 0.722168 20.6577V82.2615C0.722168 93.1197 9.52452 101.922 20.3828 101.922H82.9626C93.8208 101.922 102.623 93.1197 102.623 82.2615V20.6577C102.623 9.79942 93.8208 0.99707 82.9626 0.99707Z" fill="black"/>
<path d="M50.8165 27.0261C47.7037 27.501 45.5142 28.5298 43.4654 30.4731C42.3838 31.4931 41.6188 32.5131 40.9769 33.7441C40.379 34.9048 40.1152 35.5819 39.825 36.7514C39.5348 37.9209 39.3238 38.343 38.7346 38.9409C38.1895 39.4861 37.5388 39.829 36.7474 39.9873C35.235 40.2951 33.1773 41.2359 31.8584 42.2296C30.8911 42.9506 29.5809 44.3224 28.939 45.2808L28.4378 46.0282L27.8135 46.0898C25.3426 46.336 23.1531 48.0331 22.3353 50.3545C21.8957 51.5943 21.8869 53.1507 22.3177 54.4346C22.6695 55.4809 23.03 56.0525 23.9005 56.9142C24.5512 57.5561 24.8414 57.7848 25.4481 58.0749C26.2835 58.4882 26.9605 58.6817 27.8487 58.7696L28.4466 58.8312L28.9918 59.6313C30.4075 61.7241 32.7992 63.5619 35.2174 64.4148C36.6595 64.9248 37.6443 65.0919 39.2095 65.0919C40.5197 65.0919 40.6604 65.0743 41.3198 64.8457C43.4742 64.0895 44.9427 62.5859 45.5933 60.4755C45.8571 59.6313 45.8835 58.1013 45.6461 57.222C45.4351 56.4306 44.8811 55.3403 44.3799 54.7335C42.7883 52.8166 39.9833 51.9285 38.1631 52.7638C36.1494 53.6871 35.6746 56.2811 37.231 57.8375C37.9345 58.541 39.0776 58.9367 39.8426 58.7256C41.0824 58.3827 41.4781 56.9318 40.5636 56.0525C40.3702 55.8766 40.2647 55.7272 40.335 55.7272C40.6076 55.7272 41.3726 56.202 41.7595 56.6153C42.8147 57.7408 42.9466 59.2532 42.1112 60.5195C41.7507 61.0646 41.3814 61.3636 40.6779 61.6889C40.2383 61.9 40.0712 61.9264 39.2974 61.9264C38.2686 61.9176 37.5564 61.7505 36.6507 61.302C35.0943 60.537 33.9072 59.1125 33.3708 57.3627C32.386 54.1708 34.382 50.249 37.4508 49.3433C38.6907 48.9828 39.7986 49.1674 43.1664 50.3281C48.5039 52.1659 49.8317 52.5528 51.3881 52.7463C53.1731 52.9661 54.7559 52.5792 60.7528 50.4952C63.7161 49.4664 64.7537 49.2026 65.765 49.2026C66.7762 49.2026 67.5148 49.4312 68.3941 50.0204C69.7131 50.8997 70.698 52.3681 71.12 54.074C71.2695 54.672 71.3223 56.2547 71.2168 56.756C70.7243 58.9718 69.2998 60.6953 67.3038 61.5043C65.0087 62.4276 62.9599 61.9 62.107 60.1677C61.2628 58.4443 62.1158 56.3954 63.936 55.7799L64.358 55.6392L64.0151 55.9206C63.426 56.4042 63.2061 57.1517 63.4699 57.776C63.6194 58.1365 64.1206 58.5762 64.5339 58.7168C65.5979 59.0686 67.295 58.1365 67.849 56.8879C68.104 56.3163 68.1655 55.2787 67.9721 54.6896C67.4972 53.2738 66.3101 52.4561 64.7537 52.4649C61.9399 52.4737 59.4778 54.4697 58.7656 57.3099C58.5194 58.2772 58.5633 59.772 58.8623 60.6513C59.7328 63.2366 61.9927 64.96 64.7186 65.1095C67.3653 65.259 70.3902 64.2742 72.6852 62.5331C73.5382 61.8824 74.8571 60.4931 75.4375 59.6138L75.9651 58.8224L76.563 58.7608C77.4687 58.6729 78.0755 58.497 78.9987 58.0398C80.4496 57.3275 81.6191 55.9558 82.1291 54.3642C82.4633 53.3354 82.516 51.9812 82.261 50.9788C81.5839 48.2617 79.3417 46.3448 76.5278 46.0898L75.9475 46.0282L75.6749 45.5798C74.9099 44.3136 73.459 42.8187 72.1049 41.9042C70.7243 40.9809 69.546 40.4621 67.805 40.0225C66.7498 39.7587 66.231 39.4949 65.6946 38.9585C65.1494 38.4133 64.8944 37.9033 64.5779 36.6987C63.936 34.219 62.8544 32.3284 61.1134 30.6225C59.3195 28.8639 57.1124 27.6944 54.6416 27.1844C53.9997 27.0613 51.3529 26.947 50.8165 27.0261ZM53.6391 33.4452C56.0397 33.9728 57.8862 36.0392 58.2556 38.6068C58.3963 39.5477 58.2907 39.9433 57.7895 40.4446C55.9869 42.2472 49.1986 42.4054 46.9211 40.6908C46.2792 40.2071 46.1121 39.8906 46.1121 39.1959C46.1121 38.4309 46.3847 37.3845 46.7892 36.558C47.2289 35.6698 48.4336 34.4476 49.3217 33.9903C50.711 33.2693 52.0827 33.0934 53.6391 33.4452Z" fill="white"/>
<path d="M50.0691 67.3694C48.073 67.6772 46.6837 68.3103 46.288 69.0929C45.9275 69.7963 46.1297 71.1945 46.7804 72.5222C47.3608 73.7005 48.2753 74.615 49.4536 75.1954C50.5351 75.723 51.3353 75.8988 52.4872 75.8373C55.0285 75.7054 57.2004 74.0874 57.983 71.7396C58.2556 70.9043 58.3875 69.8051 58.2644 69.3743C58.0269 68.5741 56.8487 67.8794 55.1252 67.5101C53.9997 67.2727 51.2122 67.1935 50.0691 67.3694Z" fill="white"/>
</g>
<defs>
<clipPath id="clip0_48_8">
<rect width="103" height="102" fill="white"/>
</clipPath>
</defs>
</svg>
