<svg width="48" height="38" viewBox="0 0 48 38" fill="none" xmlns="http://www.w3.org/2000/svg">
<path d="M22.4166 0.0203472C19.9951 0.389724 18.2919 1.19004 16.6981 2.70175C15.8567 3.49522 15.2616 4.2887 14.7623 5.24634C14.2971 6.14926 14.0919 6.67597 13.8662 7.58573C13.6405 8.49549 13.4763 8.82382 13.018 9.28896C12.5939 9.71306 12.0877 9.97983 11.4721 10.103C10.2956 10.3424 8.69494 11.0743 7.66889 11.8472C6.91646 12.4081 5.89726 13.4752 5.39791 14.2208L5.00802 14.8022L4.52235 14.8501C2.60023 15.0417 0.896993 16.3618 0.260845 18.1677C-0.0811703 19.1322 -0.0880106 20.3429 0.247164 21.3416C0.520776 22.1556 0.801229 22.6002 1.47842 23.2705C1.9846 23.7699 2.21033 23.9477 2.68231 24.1735C3.33214 24.495 3.85884 24.6454 4.54972 24.7138L5.01486 24.7617L5.43895 25.3842C6.54024 27.0122 8.40081 28.4418 10.2819 29.1053C11.4037 29.5021 12.1698 29.632 13.3874 29.632C14.4066 29.632 14.516 29.6183 15.0291 29.4405C16.7049 28.8522 17.8473 27.6825 18.3534 26.0409C18.5587 25.3842 18.5792 24.194 18.3945 23.51C18.2303 22.8943 17.7994 22.0461 17.4095 21.5741C16.1714 20.083 13.9893 19.3921 12.5734 20.0419C11.007 20.7602 10.6376 22.778 11.8483 23.9888C12.3955 24.536 13.2848 24.8438 13.8799 24.6796C14.8444 24.4129 15.1522 23.2842 14.4408 22.6002C14.2903 22.4634 14.2082 22.3471 14.2629 22.3471C14.475 22.3471 15.0701 22.7165 15.3711 23.038C16.1919 23.9135 16.2945 25.0901 15.6447 26.0751C15.3642 26.4992 15.0769 26.7317 14.5297 26.9848C14.1877 27.149 14.0577 27.1695 13.4558 27.1695C12.6555 27.1627 12.1014 27.0327 11.3969 26.6839C10.1861 26.0888 9.26268 24.9806 8.84543 23.6194C8.07931 21.1364 9.63206 18.0856 12.0193 17.381C12.9838 17.1006 13.8457 17.2442 16.4655 18.1472C20.6176 19.5768 21.6505 19.8778 22.8612 20.0282C24.2498 20.1992 25.481 19.8983 30.1461 18.2771C32.4513 17.4768 33.2585 17.2716 34.0451 17.2716C34.8317 17.2716 35.4063 17.4494 36.0904 17.9077C37.1164 18.5918 37.8825 19.7341 38.2108 21.0611C38.3271 21.5263 38.3682 22.7575 38.2861 23.1474C37.903 24.8712 36.7949 26.2119 35.2422 26.8412C33.4568 27.5594 31.863 27.149 31.1995 25.8015C30.5429 24.4608 31.2064 22.867 32.6223 22.3881L32.9507 22.2787L32.6839 22.4976C32.2256 22.8738 32.0546 23.4552 32.2598 23.9409C32.3761 24.2213 32.766 24.5634 33.0875 24.6728C33.9151 24.9464 35.2353 24.2213 35.6663 23.25C35.8646 22.8054 35.9125 21.9982 35.762 21.5399C35.3926 20.4387 34.4692 19.8025 33.2585 19.8094C31.0696 19.8162 29.1543 21.3689 28.6002 23.5784C28.4087 24.3308 28.4429 25.4936 28.6755 26.1777C29.3527 28.1887 31.1106 29.5294 33.2311 29.6457C35.29 29.762 37.6431 28.9959 39.4284 27.6415C40.0919 27.1353 41.118 26.0545 41.5694 25.3705L41.9799 24.7549L42.445 24.707C43.1495 24.6386 43.6215 24.5018 44.3398 24.1461C45.4684 23.592 46.3782 22.525 46.7749 21.2869C47.0348 20.4865 47.0759 19.4331 46.8775 18.6533C46.3508 16.5397 44.6065 15.0485 42.4176 14.8501L41.9662 14.8022L41.7541 14.4534C41.159 13.4684 40.0304 12.3055 38.977 11.5941C37.903 10.8759 36.9864 10.4723 35.6321 10.1303C34.8112 9.92511 34.4076 9.7199 33.9904 9.30264C33.5663 8.87854 33.3679 8.48181 33.1217 7.54468C32.6223 5.61572 31.781 4.14505 30.4266 2.81803C29.0312 1.44997 27.3142 0.54021 25.3921 0.143473C24.8928 0.0477084 22.8338 -0.0412156 22.4166 0.0203472ZM24.6123 5.01377C26.4797 5.42419 27.9162 7.03166 28.2035 9.02903C28.3129 9.76094 28.2308 10.0688 27.8409 10.4587C26.4387 11.8609 21.158 11.984 19.3863 10.6502C18.887 10.274 18.757 10.0277 18.757 9.48733C18.757 8.89222 18.9691 8.07823 19.2837 7.43524C19.6257 6.74437 20.5629 5.79357 21.2537 5.43787C22.3345 4.87697 23.4016 4.74016 24.6123 5.01377Z" fill="#272727"/>
<path d="M21.835 31.4037C20.2823 31.6431 19.2015 32.1356 18.8937 32.7444C18.6132 33.2916 18.7706 34.3792 19.2767 35.4121C19.7282 36.3287 20.4396 37.0401 21.3562 37.4915C22.1976 37.902 22.82 38.0388 23.7161 37.9909C25.6929 37.8883 27.3825 36.6297 27.9913 34.8033C28.2033 34.1535 28.3059 33.2984 28.2102 32.9633C28.0255 32.3408 27.1089 31.8004 25.7682 31.5131C24.8926 31.3284 22.7243 31.2669 21.835 31.4037Z" fill="#272727"/>
</svg>
